<svg width="100" height="100" viewBox="0 0 100 100" fill="none" xmlns="http://www.w3.org/2000/svg">
<path d="M59.8334 25.6375C59.4406 25.2301 58.8992 25 58.3334 25H41.6668C41.101 25 40.5596 25.2301 40.1668 25.6375C37.1209 28.7916 10.4166 56.8084 10.4166 68.75C10.4166 85.9834 28.175 100 50 100C71.825 100 89.5834 85.9834 89.5834 68.75C89.5834 56.8084 62.8791 28.7916 59.8334 25.6375Z" fill="#4CAF50"/>
<path d="M76.5625 2.7875C73.0916 -1.1375 64.0625 4.0125 58.8791 7.5C56.5041 4.125 52.9875 0 50 0C47.0125 0 43.4959 4.125 41.1209 7.5C35.95 4.0084 26.9041 -1.1416 23.4375 2.7875C22.4765 3.89551 22.0232 5.35508 22.1875 6.8125C22.8584 14.5291 38.5666 27.2834 40.3541 28.7084C40.7262 29.007 41.1894 29.1688 41.6666 29.1668H58.3332C58.8054 29.1672 59.2638 29.007 59.6332 28.7127C61.4207 27.2836 77.1332 14.5461 77.7998 6.8168C77.9705 5.35957 77.5215 3.89766 76.5625 2.7875Z" fill="#4CAF50"/>
<path d="M66.6666 29.1666H33.3334C32.1828 29.1666 31.25 28.2338 31.25 27.0832C31.25 25.9326 32.1828 25 33.3334 25H66.6668C67.8174 25 68.7502 25.9328 68.7502 27.0834C68.7502 28.234 67.8172 29.1666 66.6666 29.1666Z" fill="#388E3C"/>
<path d="M50 83.3334C45.0459 83.8226 40.5334 80.4617 39.5834 75.575C39.4867 74.4244 40.3412 73.4133 41.4918 73.3166C42.6424 73.2199 43.6535 74.0744 43.7502 75.225C43.9336 77.4 46.7377 79.1666 50.0002 79.1666C53.3918 79.1666 56.2502 77.2582 56.2502 75C56.2502 72.9666 54.2752 71.6666 50.0377 70.875L49.5836 70.7916C42.8211 69.5416 39.5836 66.7791 39.5836 62.5C40.2354 57.3648 44.8473 53.6754 50.0002 54.1666C54.9543 53.6773 59.4668 57.0383 60.4168 61.925C60.5135 63.0756 59.659 64.0867 58.5084 64.1834C57.3578 64.2801 56.3467 63.4256 56.25 62.275C56.075 60.1 53.2709 58.3334 50 58.3334C46.6084 58.3334 43.75 60.2418 43.75 62.5C43.75 64.5334 45.7291 65.8334 49.9709 66.625L50.4293 66.7125C57.1793 67.9625 60.4293 70.7209 60.4293 75.0041C59.7752 80.143 55.1563 83.832 50 83.3334Z" fill="#FAFAFA"/>
<path d="M50 87.5C48.8494 87.5 47.9166 86.5672 47.9166 85.4166V52.0834C47.9166 50.9328 48.8494 50 50 50C51.1506 50 52.0834 50.9328 52.0834 52.0834V85.4168C52.0834 86.5672 51.1506 87.5 50 87.5Z" fill="#FAFAFA"/>
</svg>
