<svg enable-background="new 0 0 24 24" height="512" viewBox="0 0 24 24" width="512" xmlns="http://www.w3.org/2000/svg"><path d="m2 24c-1.103 0-2-.842-2-1.875 0-.23.043-.447.133-.662.116-.28.388-.463.692-.463h2.35c.304 0 .576.183.692.463.09.215.133.432.133.662 0 1.033-.897 1.875-2 1.875z" fill="#546e7a"/><path d="m2.125 21h-1.3c-.304 0-.576.183-.692.463-.09.215-.133.432-.133.662 0 1.033.897 1.875 2 1.875.042 0 .084-.001.125-.004z" fill="#49606a"/><path d="m17.25 22h-16.5c-.414 0-.75-.336-.75-.75s.336-.75.75-.75h15.75v-1.75c0-1.517 1.233-2.75 2.75-2.75h2c.414 0 .75.336.75.75s-.336.75-.75.75h-2c-.689 0-1.25.561-1.25 1.25v2.5c0 .414-.336.75-.75.75z" fill="#90a4ae"/><path d="m12.25 1.125h-5.5c-.41 0-.75.34-.75.75v5c0 .41.34.75.75.75h5.5c.41 0 .75-.34.75-.75v-5c0-.41-.34-.75-.75-.75z" fill="#ffcc80"/><path d="m10.25 1.125v2.25c0 .41-.34.75-.75.75s-.75-.34-.75-.75v-2.25z" fill="#795548"/><path d="m8.75 1.125h-2c-.41 0-.75.34-.75.75v5c0 .41.34.75.75.75h2.625v-3.511c-.352-.06-.625-.371-.625-.739z" fill="#deb26f"/><path d="m9.375 1.125h-.625v2.25c0 .368.273.679.625.739z" fill="#694a3f"/><path d="m9.25 14.042h-5.5c-.41 0-.75.34-.75.75v5c0 .409.34.75.75.75h5.5c.41 0 .75-.341.75-.75v-5c0-.41-.34-.75-.75-.75z" fill="#ffa726"/><path d="m7.25 14.042v2.25c0 .409-.34.75-.75.75s-.75-.341-.75-.75v-2.25z" fill="#795548"/><path d="m9.25 7.625h-5.5c-.41 0-.75.34-.75.75v5c0 .41.34.75.75.75h5.5c.41 0 .75-.34.75-.75v-5c0-.41-.34-.75-.75-.75z" fill="#ffb74d"/><path d="m7.25 7.625v2.25c0 .41-.34.75-.75.75s-.75-.34-.75-.75v-2.25z" fill="#795548"/><path d="m3.506 14.083c-.293.103-.506.384-.506.709v5c0 .409.34.75.75.75h2.75v-3.5c-.41 0-.75-.341-.75-.75v-2.167h-2c-.085 0-.167-.015-.244-.042z" fill="#de9121"/><path d="m6.5 14.125h-.75v2.167c0 .409.34.75.75.75z" fill="#694a3f"/><path d="m5.75 7.625h-2c-.41 0-.75.34-.75.75v5c0 .325.213.606.506.708.077.027.159.041.244.041h2 .75v-3.5c-.41 0-.75-.34-.75-.75z" fill="#de9f43"/><path d="m6.5 7.625h-.75v2.25c0 .41.34.75.75.75z" fill="#694a3f"/><path d="m15.25 14.042h-5.5c-.41 0-.75.34-.75.75v5c0 .409.34.75.75.75h5.5c.41 0 .75-.341.75-.75v-5c0-.41-.34-.75-.75-.75z" fill="#ffb74d"/><path d="m13.25 14.042v2.25c0 .409-.34.75-.75.75s-.75-.341-.75-.75v-2.25z" fill="#795548"/><path d="m15.25 7.625h-5.5c-.41 0-.75.34-.75.75v5c0 .41.34.75.75.75h5.5c.41 0 .75-.34.75-.75v-5c0-.41-.34-.75-.75-.75z" fill="#ffa726"/><path d="m13.25 7.625v2.25c0 .41-.34.75-.75.75s-.75-.34-.75-.75v-2.25z" fill="#795548"/><path d="m9.506 14.083c-.293.103-.506.384-.506.709v5c0 .409.34.75.75.75h2.75v-3.5c-.41 0-.75-.341-.75-.75v-2.167h-2c-.085 0-.167-.015-.244-.042z" fill="#de9f43"/><path d="m12.5 14.125h-.75v2.167c0 .409.34.75.75.75z" fill="#694a3f"/><path d="m11.75 7.625h-2c-.41 0-.75.34-.75.75v5c0 .325.213.606.506.709.077.027.159.042.244.042h2 .75v-3.5c-.41 0-.75-.34-.75-.75z" fill="#de9121"/><path d="m12.5 7.625h-.75v2.25c0 .41.34.75.75.75z" fill="#694a3f"/><path d="m21.5 24c-1.379 0-2.5-1.121-2.5-2.5s1.121-2.5 2.5-2.5 2.5 1.121 2.5 2.5-1.121 2.5-2.5 2.5z" fill="#546e7a"/><path d="m21.25 20.25c-.414 0-.75-.336-.75-.75v-18.75c0-.414.336-.75.75-.75s.75.336.75.75v18.75c0 .414-.336.75-.75.75z" fill="#546e7a"/><g fill="#49606a"><path d="m20.5 19.209c-.882.386-1.5 1.268-1.5 2.291 0 1.295.988 2.362 2.25 2.488v-3.738c-.414 0-.75-.336-.75-.75z"/><path d="m21.25 0c-.414 0-.75.336-.75.75v18.459.291c0 .414.336.75.75.75z"/></g></svg>