<svg id="Layer_1" height="512" viewBox="0 0 512 512" width="512" xmlns="http://www.w3.org/2000/svg" data-name="Layer 1"><path d="m288 193h43v12h-43z" fill="#d4e1f4"/><path d="m256.27 471.08a44.975 44.975 0 0 1 -6.04-22.86c0-21.57 14.31-39.06 31.96-39.06s31.96 17.49 31.96 39.06-14.31 39.07-31.96 39.07c-10.67 0-20.12-6.39-25.92-16.21z" fill="#edb740"/><path d="m282 409.16v-.23l-218.135.23c-17.65 0-31.913 17.49-31.913 39.06s14.239 39.07 31.889 39.07l218.159.23v-.23c-10 0-20.025-6.39-25.825-16.21a45 45 0 0 1 -6.088-22.86c0-21.57 14.913-39.06 31.913-39.06z" fill="#e8a467"/><path d="m329.5 180.13h31v33.01h-31z" fill="#8dfff9"/><path d="m463.49 180.13a16.505 16.505 0 1 1 0 33.01h-102.99v-33.01z" fill="#a0eaea"/><path d="m290.75 168.34v23.58a47.172 47.172 0 0 1 -47.17 47.17h-141.49a47.172 47.172 0 0 1 -47.17-47.17v-23.58z" fill="#6d7486"/><path d="m214.69 311.26-45.55-45.54s-30.27 20.24-27.7 61.46l-17.3-16.46c-25.25 25.25-25.63 66.94-.19 91.99a64.72 64.72 0 0 0 7.45 6.3c1.15.83 2.31 1.62 3.5 2.37a63.945 63.945 0 0 0 25.75 9.27l17.12-.01a64.019 64.019 0 0 0 25.87-9.42c1.1-.7 2.19-1.44 3.26-2.22a64.431 64.431 0 0 0 7.79-97.74z" fill="#fb6771"/><path d="m282.19 427.63c9.31 0 16.85 9.22 16.85 20.59s-7.54 20.6-16.85 20.6-16.85-9.22-16.85-20.6 7.54-20.59 16.85-20.59z" fill="#c2684f"/><path d="m61.953 448.22c0-21.57 14.262-39.06 31.912-39.06h-30c-17.65 0-31.912 17.49-31.912 39.06s14.238 39.07 31.888 39.07h30c-17.65 0-31.888-17.49-31.888-39.07z" fill="#d69056"/><path d="m84.92 191.92v-23.58h-30v23.58a47.172 47.172 0 0 0 47.17 47.17h30a47.172 47.172 0 0 1 -47.17-47.17z" fill="#4a5160"/><path d="m161.4 409.01a64.72 64.72 0 0 1 -7.45-6.3c-25.44-25.05-25.06-66.74.19-91.99l17.3 16.46a70.707 70.707 0 0 1 12.924-46.239l-15.224-15.221s-30.27 20.24-27.7 61.46l-17.3-16.46c-25.25 25.25-25.63 66.94-.19 91.99a64.72 64.72 0 0 0 7.45 6.3c1.15.83 2.31 1.62 3.5 2.37a63.945 63.945 0 0 0 25.75 9.27l17.12-.01a64.292 64.292 0 0 0 6.375-1.191 63.854 63.854 0 0 1 -19.245-8.069c-1.19-.75-2.35-1.54-3.5-2.37z" fill="#dd576a"/><path d="m194.07 371.72a31.236 31.236 0 0 1 -16.3 48.92 64 64 0 0 1 -17.12.01 30.337 30.337 0 0 1 -13.12-7.74 30.9 30.9 0 0 1 -2.29-40.91l24.59-31.46z" fill="#fadf4a"/><g fill="#d4e1f4"><path d="m149.548 148.4a6 6 0 0 1 -6-6c0-10.295 6.786-15.6 11.74-19.466 4.683-3.658 7.127-5.764 7.127-10.009s-2.444-6.351-7.127-10.009c-4.955-3.871-11.74-9.171-11.74-19.467s6.785-15.6 11.739-19.469c4.684-3.659 7.128-5.766 7.128-10.012s-2.444-6.353-7.128-10.012c-4.954-3.871-11.739-9.172-11.739-19.469a6 6 0 0 1 12 0c0 4.246 2.444 6.353 7.127 10.013 4.955 3.87 11.739 9.171 11.74 19.468s-6.785 15.6-11.739 19.468c-4.684 3.659-7.128 5.766-7.128 10.013s2.444 6.351 7.127 10.01c4.954 3.87 11.739 9.17 11.74 19.466s-6.786 15.6-11.74 19.466c-4.683 3.658-7.127 5.765-7.127 10.009a6 6 0 0 1 -6 6z"/><path d="m204.968 148.4a6 6 0 0 1 -6-6c0-10.295 6.785-15.6 11.739-19.466 4.683-3.658 7.127-5.764 7.127-10.009s-2.444-6.351-7.127-10.01c-4.954-3.87-11.739-9.17-11.739-19.466s6.784-15.6 11.739-19.469c4.683-3.659 7.127-5.766 7.127-10.012a6 6 0 0 1 12 0c0 10.3-6.785 15.6-11.739 19.468-4.684 3.659-7.127 5.766-7.127 10.013s2.443 6.351 7.126 10.01c4.955 3.87 11.74 9.17 11.74 19.466s-6.785 15.6-11.74 19.466c-4.683 3.658-7.126 5.765-7.126 10.009a6 6 0 0 1 -6 6z"/><path d="m91.771 148.4a6 6 0 0 1 -6-6c0-10.295 6.785-15.6 11.739-19.466 4.683-3.658 7.127-5.764 7.127-10.009s-2.444-6.351-7.127-10.01c-4.954-3.87-11.739-9.17-11.739-19.466s6.785-15.6 11.739-19.469c4.683-3.659 7.127-5.766 7.127-10.012a6 6 0 0 1 12 0c0 10.3-6.785 15.6-11.739 19.468-4.683 3.659-7.127 5.766-7.127 10.013s2.444 6.351 7.127 10.01c4.954 3.87 11.739 9.17 11.739 19.466s-6.785 15.6-11.739 19.466c-4.683 3.658-7.127 5.765-7.127 10.009a6 6 0 0 1 -6 6z"/></g><path d="m88 194h-7a6 6 0 0 1 0-12h7a6 6 0 0 1 0 12z" fill="#f4f8fc"/><path d="m185 194h-79a6 6 0 0 1 0-12h79a6 6 0 0 1 0 12z" fill="#f4f8fc"/><path d="m57.889 444.318c9.68 0 20.484-.553 29.039-2.452 17.834-3.957 41.89 1.072 42.128 1.122a6 6 0 1 0 2.509-11.734c-1.086-.232-26.821-5.634-47.236-1.1-16.529 3.666-44.072 1.646-49.265 1.216a45.568 45.568 0 0 0 -2.83 11.725 6.045 6.045 0 0 0 .859.15c.785.073 11.776 1.073 24.796 1.073z" fill="#c47d47"/><path d="m202.206 463.235c-8.647-2.608-18.49-3.342-26.33-1.969a6 6 0 1 0 2.071 11.82 48 48 0 0 1 20.795 1.639c9.582 2.889 21.774 3.71 32.538 3.71a240.427 240.427 0 0 0 25.814-1.417 5.967 5.967 0 0 0 2.619-.971 36.071 36.071 0 0 1 -3.538-4.967 42.435 42.435 0 0 1 -2.805-5.738c-7.959.768-34.747 2.843-51.164-2.107z" fill="#c47d47"/></svg>