<svg width="97" height="67" viewBox="0 0 97 67" fill="none" xmlns="http://www.w3.org/2000/svg">
<path d="M76.6211 34.0673C77.1247 34.2553 77.6665 34.3179 78.1997 34.2498C78.7329 34.1816 79.2416 33.9848 79.6818 33.6763C80.122 33.3677 80.4805 32.9567 80.7264 32.4787C80.9723 32.0007 81.0982 31.47 81.0933 30.9325C82.4235 30.9325 83.6993 30.4041 84.6399 29.4635C85.5805 28.5229 86.1089 27.2471 86.1089 25.9169C86.1089 24.5867 85.5805 23.3109 84.6399 22.3703C83.6993 21.4297 82.4235 20.9013 81.0933 20.9013C80.2299 20.9067 79.3828 21.1372 78.6357 21.57C78.3723 21.1606 78.0507 20.7917 77.681 20.4749C78.0992 20.2473 78.4638 19.9328 78.7503 19.5526C79.0368 19.1724 79.2386 18.7352 79.3421 18.2705C79.4456 17.8058 79.4484 17.3243 79.3504 16.8584C79.2523 16.3925 79.0557 15.953 78.7736 15.5695C78.4916 15.1859 78.1307 14.8672 77.7152 14.6347C77.2997 14.4022 76.8393 14.2613 76.3649 14.2216C75.8905 14.1819 75.413 14.2442 74.9647 14.4043C74.5163 14.5644 74.1074 14.8187 73.7655 15.15C73.2894 14.273 72.5609 13.5591 71.6743 13.1009C70.7878 12.6427 69.7841 12.4613 68.7933 12.5802C67.8024 12.6991 66.8701 13.1128 66.1172 13.7678C65.3642 14.4227 64.8253 15.2887 64.5702 16.2534C63.4719 15.8068 62.2506 15.7651 61.1245 16.136C59.9983 16.5068 59.0407 17.266 58.4228 18.2779C57.8048 19.2897 57.5667 20.4883 57.7511 21.6595C57.9355 22.8308 58.5302 23.8983 59.4292 24.6713C58.971 24.9173 58.5767 25.2671 58.2778 25.6927C57.9789 26.1183 57.7838 26.6079 57.7079 27.1224C57.6321 27.6369 57.6777 28.162 57.841 28.6557C58.0044 29.1494 58.281 29.5981 58.6487 29.9658C59.0165 30.3336 59.4651 30.6102 59.9589 30.7735C60.4526 30.9369 60.9777 30.9825 61.4922 30.9066C62.0067 30.8308 62.4963 30.6356 62.9219 30.3368C63.3475 30.0379 63.6973 29.6436 63.9432 29.1854C64.4094 29.7315 64.9881 30.1704 65.6397 30.4719C66.2912 30.7735 67.0003 30.9306 67.7183 30.9325C67.7148 31.9699 68.0341 32.9828 68.6322 33.8305C69.2302 34.6782 70.0773 35.3187 71.0558 35.6633C72.0344 36.0078 73.0959 36.0393 74.0931 35.7533C75.0903 35.4673 75.9739 34.8781 76.6211 34.0673Z" fill="#5BA006"/>
<path d="M70.2392 7.49784C72.1201 9.37878 73.1768 11.9299 73.1768 14.5899C73.1768 17.25 72.1201 19.8011 70.2392 21.682C69.2987 22.6225 68.0232 23.1508 66.6931 23.1508C65.3631 23.1508 64.0876 22.6225 63.1471 21.682L56.055 14.5899C55.1145 13.6495 54.5862 12.3739 54.5862 11.0439C54.5862 9.71386 55.1145 8.43831 56.055 7.49784C57.9359 5.6169 60.487 4.5602 63.1471 4.5602C65.8071 4.5602 68.3582 5.6169 70.2392 7.49784Z" fill="#F9E109"/>
<path d="M50.1469 27.6055C49.555 27.0136 49.0958 26.3026 48.7996 25.5197C48.5035 24.7367 48.3773 23.8998 48.4293 23.0643C48.4813 22.2289 48.7104 21.414 49.1014 20.6739C49.4923 19.9337 50.0362 19.2852 50.697 18.7713L56.057 14.6016L63.1508 21.6954L58.9811 27.0554C58.4672 27.7162 57.8187 28.2601 57.0785 28.651C56.3384 29.042 55.5235 29.2711 54.6881 29.3231C53.8526 29.3751 53.0157 29.2489 52.2328 28.9528C51.4498 28.6566 50.7388 28.1974 50.1469 27.6055Z" fill="#FCBC04"/>
<path d="M71.9147 15.0079C70.9742 15.9482 69.6987 16.4764 68.3687 16.4764C67.0387 16.4764 65.7632 15.9482 64.8226 15.0079L57.7289 7.91413C57.408 7.58446 57.1351 7.21132 56.918 6.80568C56.6179 7.02376 56.3304 7.25876 56.057 7.50954C55.1167 8.45011 54.5885 9.72562 54.5885 11.0556C54.5885 12.3856 55.1167 13.6611 56.057 14.6016L63.1508 21.6954C64.0913 22.6357 65.3669 23.1639 66.6968 23.1639C68.0268 23.1639 69.3023 22.6357 70.2429 21.6954C71.2929 20.6407 72.0932 19.3641 72.5851 17.9595C73.0769 16.5548 73.2478 15.0578 73.0851 13.5784C72.7399 14.09 72.3481 14.5686 71.9147 15.0079Z" fill="#FCBC04"/>
<path d="M56.057 14.6016L54.1979 16.0495C54.2631 16.123 54.3149 16.2033 54.3851 16.2735L60.4039 22.2923C59.8741 22.899 59.2254 23.3905 58.4979 23.7364C57.7704 24.0822 56.9797 24.2749 56.1747 24.3027C55.3697 24.3304 54.5675 24.1926 53.818 23.8976C53.0684 23.6027 52.3874 23.157 51.8171 22.5882C50.9256 21.6971 50.3457 20.5419 50.1636 19.2946C49.0606 20.3956 48.4399 21.8895 48.4381 23.448C48.4362 25.0064 49.0532 26.5018 50.1536 27.6055C50.7455 28.1974 51.4565 28.6566 52.2394 28.9528C53.0224 29.2489 53.8593 29.3751 54.6948 29.3231C55.5302 29.2711 56.3451 29.042 57.0852 28.651C57.8253 28.2601 58.4739 27.7162 58.9878 27.0554L63.1575 21.6954L56.057 14.6016Z" fill="#E59730"/>
<path d="M26.7586 16.7216C26.759 15.1778 27.2935 13.6817 28.2714 12.4871C29.2493 11.2925 30.6104 10.4731 32.1237 10.1678C31.8955 9.59303 31.7769 8.9806 31.7742 8.36218C31.7742 7.03196 32.3027 5.75621 33.2433 4.8156C34.1839 3.87499 35.4596 3.34656 36.7899 3.34656C38.1201 3.34656 39.3958 3.87499 40.3364 4.8156C41.277 5.75621 41.8055 7.03196 41.8055 8.36218C41.8055 8.44578 41.7854 8.52937 41.7804 8.60628C42.3331 8.45163 42.9035 8.36958 43.4774 8.36218C45.251 8.36218 46.952 9.06676 48.2061 10.3209C49.4603 11.5751 50.1649 13.276 50.1649 15.0497C50.158 16.162 49.8705 17.2546 49.3289 18.2262C50.1845 18.9045 50.8592 19.7838 51.2927 20.7858C51.7262 21.7879 51.9052 22.8816 51.8137 23.9696C51.7221 25.0576 51.363 26.106 50.7681 27.0216C50.1733 27.9372 49.3613 28.6914 48.4044 29.2171C48.4594 29.5071 48.4891 29.8014 48.493 30.0966C48.493 31.4268 47.9645 32.7025 47.0239 33.6431C46.0833 34.5837 44.8076 35.1122 43.4774 35.1122C42.6139 35.1067 41.7668 34.8762 41.0197 34.4434C40.3539 35.5066 39.3131 36.2811 38.1035 36.6134C36.8938 36.9458 35.6035 36.8118 34.4879 36.2381C33.3723 35.6643 32.5128 34.6926 32.0796 33.5152C31.6464 32.3379 31.6711 31.0409 32.1487 29.8809C31.2025 28.9813 30.5453 27.8205 30.2607 26.5463C29.9761 25.2721 30.0769 23.942 30.5504 22.7253C29.417 22.1834 28.4596 21.3324 27.7888 20.2702C27.1179 19.208 26.7608 17.9779 26.7586 16.7216Z" fill="#A1D51C"/>
<path d="M50.1637 21.7372C49.3002 21.7317 48.4531 21.5012 47.706 21.0684C47.0402 22.1317 45.9994 22.9061 44.7898 23.2385C43.5801 23.5708 42.2898 23.4368 41.1742 22.8631C40.0586 22.2893 39.1991 21.3176 38.7659 20.1403C38.3327 18.9629 38.3574 17.6659 38.835 16.5059C37.8888 15.6063 37.2316 14.4455 36.947 13.1713C36.6624 11.8971 36.7632 10.567 37.2367 9.35027C36.2895 8.89519 35.4628 8.2233 34.8238 7.38905C34.1847 6.55481 33.7513 5.5817 33.5586 4.54865C32.7538 5.2116 32.1801 6.11287 31.9202 7.12267C31.6604 8.13248 31.7276 9.1987 32.1124 10.1678C30.7393 10.4417 29.4872 11.1408 28.5336 12.166C27.5799 13.1912 26.9732 14.4906 26.7993 15.8799C26.6254 17.2693 26.8933 18.6781 27.5648 19.9067C28.2364 21.1354 29.2776 22.1215 30.5409 22.7253C30.0674 23.942 29.9665 25.2721 30.2511 26.5463C30.5357 27.8205 31.193 28.9813 32.1392 29.8809C31.6544 31.043 31.6252 32.3452 32.0575 33.5279C32.4899 34.7106 33.3519 35.687 34.4719 36.2625C35.592 36.838 36.8877 36.9704 38.101 36.6332C39.3142 36.2961 40.3559 35.5143 41.0185 34.4434C41.7656 34.8762 42.6127 35.1068 43.4762 35.1122C44.8064 35.1122 46.0821 34.5838 47.0227 33.6431C47.9634 32.7025 48.4918 31.4268 48.4918 30.0966C48.4879 29.8014 48.4582 29.5072 48.4032 29.2172C49.4406 28.6423 50.3057 27.8009 50.9091 26.7798C51.5125 25.7588 51.8323 24.5951 51.8355 23.4091C51.8267 22.7697 51.7224 22.1352 51.5262 21.5265C51.0841 21.66 50.6255 21.7309 50.1637 21.7372Z" fill="#7AB92D"/>
<path d="M42.2156 29.7104H42.1487C41.9292 29.7017 41.7136 29.65 41.5142 29.558C41.3147 29.466 41.1353 29.3357 40.9863 29.1744C40.8372 29.013 40.7214 28.8239 40.6455 28.6179C40.5696 28.4118 40.535 28.1927 40.5437 27.9733C40.7376 23.1512 39.5172 18.3778 37.0328 14.2405C36.9149 14.0522 36.8358 13.8424 36.8 13.6232C36.7642 13.404 36.7724 13.1799 36.8242 12.9639C36.876 12.7479 36.9702 12.5444 37.1015 12.3653C37.2328 12.1862 37.3985 12.035 37.5889 11.9206C37.7792 11.8062 37.9905 11.7309 38.2103 11.699C38.4301 11.6672 38.654 11.6794 38.869 11.7351C39.084 11.7908 39.2858 11.8887 39.4625 12.0232C39.6393 12.1577 39.7874 12.3261 39.8984 12.5185C42.7215 17.2132 44.1088 22.6316 43.8891 28.1054C43.8718 28.5374 43.6879 28.9459 43.3758 29.2451C43.0638 29.5444 42.6479 29.7111 42.2156 29.7104Z" fill="#5BA006"/>
<path d="M41.3027 21.7372C41.078 21.7377 40.8555 21.6922 40.649 21.6034L32.7912 18.2597C32.5892 18.1736 32.4062 18.0486 32.2525 17.8918C32.0988 17.735 31.9775 17.5494 31.8955 17.3458C31.8136 17.1421 31.7725 16.9242 31.7747 16.7047C31.777 16.4851 31.8224 16.2682 31.9085 16.0662C31.9945 15.8642 32.1195 15.6811 32.2763 15.5275C32.4332 15.3738 32.6187 15.2525 32.8224 15.1705C33.0261 15.0886 33.2439 15.0475 33.4635 15.0497C33.683 15.0519 33.9 15.0974 34.102 15.1834L40.4317 17.8752L41.9364 14.386C42.1124 13.9789 42.4429 13.6585 42.8552 13.4951C43.0594 13.4142 43.2775 13.3743 43.497 13.3777C43.7166 13.3811 43.9333 13.4277 44.1349 13.5149C44.3364 13.6021 44.5189 13.7281 44.6717 13.8857C44.8246 14.0434 44.9449 14.2296 45.0257 14.4338C45.1066 14.6379 45.1465 14.856 45.1431 15.0756C45.1397 15.2951 45.0931 15.5119 45.0059 15.7134L42.8325 20.729C42.7033 21.0277 42.4897 21.2822 42.218 21.4613C41.9463 21.6404 41.6282 21.7363 41.3027 21.7372Z" fill="#5BA006"/>
<path d="M42.234 29.2606C41.9925 29.2615 41.7539 29.2089 41.5351 29.1068L36.0898 26.599C35.8842 26.5113 35.6982 26.3833 35.5429 26.2225C35.3875 26.0617 35.2661 25.8714 35.1856 25.6628C35.1051 25.4542 35.0673 25.2316 35.0744 25.0082C35.0814 24.7847 35.1332 24.565 35.2267 24.3619C35.3202 24.1588 35.4535 23.9765 35.6186 23.8259C35.7838 23.6752 35.9775 23.5592 36.1883 23.4847C36.3991 23.4102 36.6227 23.3787 36.8458 23.3922C37.069 23.4056 37.2872 23.4636 37.4875 23.5629L41.6672 25.4839L43.7821 22.4527C43.9056 22.2678 44.0648 22.1093 44.2503 21.9866C44.4358 21.8639 44.644 21.7795 44.8625 21.7382C45.0811 21.697 45.3057 21.6997 45.5232 21.7464C45.7407 21.793 45.9466 21.8826 46.1291 22.0099C46.3115 22.1371 46.4667 22.2995 46.5856 22.4875C46.7045 22.6755 46.7846 22.8853 46.8214 23.1046C46.8582 23.324 46.8508 23.5485 46.7998 23.765C46.7487 23.9815 46.6549 24.1856 46.524 24.3654L43.6099 28.5451C43.4554 28.7666 43.2496 28.9474 43.0099 29.072C42.7703 29.1967 42.5041 29.2614 42.234 29.2606Z" fill="#5BA006"/>
<path d="M1.68057 5.01845C1.67997 3.94763 2.02209 2.90473 2.65687 2.04235C3.29165 1.17998 4.18577 0.543391 5.20839 0.22575C6.231 -0.0918914 7.32844 -0.0739146 8.3401 0.277052C9.35177 0.628018 10.2246 1.29355 10.8307 2.17626C11.7369 1.80011 12.7147 1.6283 13.6948 1.67306C14.6749 1.71782 15.633 1.97805 16.5011 2.43522C17.3691 2.89239 18.1258 3.53528 18.7171 4.31812C19.3084 5.10097 19.72 6.00453 19.9224 6.96451C21.362 6.5254 22.9094 6.59936 24.3006 7.17377C25.6918 7.74818 26.8407 8.78745 27.5512 10.1143C27.8414 10.0621 28.1357 10.0352 28.4306 10.0341C29.7608 10.0341 31.0365 10.5625 31.9772 11.5031C32.9178 12.4437 33.4462 13.7195 33.4462 15.0497C33.4427 16.1648 33.0633 17.2462 32.3695 18.1193C33.2949 19.5379 33.6419 21.2571 33.3394 22.9236C33.0368 24.5901 32.1077 26.0776 30.7428 27.0805C31.4089 27.9451 31.7714 29.0051 31.7743 30.0966C31.7776 31.3059 31.3427 32.4754 30.5501 33.3887C29.7574 34.302 28.6608 34.8973 27.4631 35.0644C26.2654 35.2314 25.0477 34.9589 24.0354 34.2973C23.0232 33.6358 22.2848 32.6299 21.9571 31.4658C20.7914 31.8356 19.5449 31.8681 18.3615 31.5596C17.1782 31.251 16.1062 30.614 15.2696 29.7221C14.357 30.0941 13.3549 30.1884 12.389 29.9932C11.4231 29.7979 10.5363 29.3218 9.83989 28.6245C9.1435 27.9272 8.6685 27.0398 8.47448 26.0736C8.28046 25.1074 8.37605 24.1055 8.74926 23.1934C7.88288 22.3792 7.25665 21.3428 6.93884 20.1972C6.62103 19.0515 6.62385 17.8406 6.94698 16.6965C6.86339 16.7015 6.77979 16.7216 6.6962 16.7216C5.72631 16.7254 4.77627 16.4469 3.96202 15.9199C3.14777 15.393 2.50453 14.6404 2.1108 13.754C1.71707 12.8676 1.58988 11.8858 1.74476 10.9284C1.89963 9.9709 2.32987 9.07924 2.98296 8.3622C2.1483 7.44824 1.68399 6.25617 1.68057 5.01845Z" fill="#C4F236"/>
<path d="M31.335 26.5868C30.7105 26.7559 30.0587 26.8001 29.417 26.7169C28.7754 26.6336 28.1565 26.4246 27.5958 26.1017C27.0351 25.7787 26.5436 25.3483 26.1496 24.8351C25.7555 24.3219 25.4667 23.736 25.2995 23.1109C24.1339 23.4807 22.8874 23.5132 21.704 23.2047C20.5206 22.8961 19.4487 22.2591 18.612 21.3672C17.6995 21.7392 16.6974 21.8335 15.7315 21.6382C14.7655 21.443 13.8787 20.9668 13.1824 20.2696C12.486 19.5723 12.011 18.6849 11.8169 17.7187C11.6229 16.7525 11.7185 15.7506 12.0917 14.8385C11.2253 14.0243 10.5991 12.9879 10.2813 11.8423C9.96349 10.6966 9.96631 9.48573 10.2894 8.34158C10.2058 8.34325 10.1223 8.36331 10.0387 8.36331C9.07312 8.36778 8.127 8.09214 7.31493 7.56981C6.50287 7.04747 5.8597 6.30084 5.46335 5.42039C5.06701 4.53993 4.93449 3.56343 5.08186 2.6092C5.22923 1.65496 5.65016 0.763931 6.29366 0.0440674C5.36175 0.111771 4.46774 0.440515 3.71397 0.992667C2.9602 1.54482 2.37714 2.29806 2.03154 3.16616C1.68594 4.03426 1.59177 4.98214 1.7598 5.90127C1.92784 6.8204 2.35129 7.67364 2.98168 8.36331C2.32858 9.08036 1.89834 9.97202 1.74347 10.9295C1.5886 11.8869 1.71579 12.8687 2.10952 13.7551C2.50325 14.6415 3.14649 15.3941 3.96074 15.9211C4.77499 16.448 5.72503 16.7266 6.69491 16.7227C6.7785 16.7227 6.8621 16.7026 6.939 16.6976C6.61587 17.8418 6.61305 19.0527 6.93086 20.1983C7.24867 21.3439 7.8749 22.3803 8.74129 23.1945C8.36807 24.1066 8.27249 25.1086 8.46651 26.0747C8.66053 27.0409 9.13553 27.9283 9.83191 28.6256C10.5283 29.3229 11.4151 29.799 12.381 29.9943C13.347 30.1895 14.349 30.0952 15.2616 29.7232C16.0983 30.6151 17.1702 31.2521 18.3536 31.5607C19.5369 31.8693 20.7834 31.8368 21.9491 31.4669C22.1474 32.1762 22.5 32.8329 22.9815 33.3901C23.4631 33.9473 24.0618 34.3913 24.7349 34.6902C25.4079 34.9892 26.1387 35.1358 26.875 35.1196C27.6112 35.1034 28.3349 34.9248 28.9941 34.5965C29.6533 34.2682 30.2319 33.7983 30.6885 33.2205C31.1451 32.6426 31.4684 31.9711 31.6353 31.2538C31.8023 30.5365 31.8087 29.7912 31.6542 29.0711C31.4997 28.351 31.188 27.674 30.7415 27.0883C30.948 26.9317 31.1461 26.7643 31.335 26.5868Z" fill="#A1D51C"/>
<path d="M25.8078 29.7104C25.4628 29.7104 25.1263 29.6037 24.8443 29.405C24.5624 29.2062 24.3488 28.9251 24.2329 28.6002C21.3293 20.4404 15.3737 13.725 7.61946 9.86687C7.22261 9.66867 6.92075 9.32093 6.78028 8.90016C6.71073 8.69182 6.6829 8.47182 6.69837 8.25272C6.71384 8.03362 6.77232 7.81971 6.87046 7.62321C6.9686 7.42671 7.10448 7.25147 7.27035 7.10748C7.43622 6.96349 7.62882 6.85359 7.83716 6.78404C8.25793 6.64357 8.71726 6.67601 9.11411 6.87421C17.6406 11.1172 24.1888 18.5021 27.381 27.4751C27.4713 27.7273 27.4997 27.9976 27.4637 28.2631C27.4277 28.5287 27.3284 28.7816 27.1741 29.0007C27.0199 29.2199 26.8153 29.3987 26.5775 29.5222C26.3397 29.6457 26.0757 29.7102 25.8078 29.7104Z" fill="#7AB92D"/>
<path d="M20.0699 20.0653H13.3824C12.939 20.0653 12.5138 19.8892 12.2002 19.5756C11.8867 19.2621 11.7105 18.8368 11.7105 18.3934C11.7105 17.95 11.8867 17.5248 12.2002 17.2112C12.5138 16.8977 12.939 16.7216 13.3824 16.7216H18.8645L20.1569 12.8495C20.297 12.4283 20.5987 12.0799 20.9956 11.8812C21.3926 11.6824 21.8522 11.6494 22.2734 11.7895C22.6947 11.9296 23.043 12.2314 23.2418 12.6283C23.4406 13.0252 23.4735 13.4849 23.3334 13.9061L21.6615 18.9218C21.5503 19.2556 21.3366 19.5459 21.0509 19.7512C20.7651 19.9565 20.4218 20.0665 20.0699 20.0653Z" fill="#7AB92D"/>
<path d="M10.0387 15.0497C9.66159 15.0504 9.29533 14.9236 8.99938 14.69C8.70343 14.4563 8.49516 14.1294 8.40841 13.7625C8.32165 13.3955 8.3615 13.01 8.52148 12.6685C8.68146 12.327 8.95218 12.0497 9.28967 11.8815L11.7105 10.6727V6.69031C11.7105 6.2469 11.8867 5.82165 12.2002 5.50811C12.5138 5.19457 12.939 5.01843 13.3824 5.01843C13.8258 5.01843 14.2511 5.19457 14.5646 5.50811C14.8782 5.82165 15.0543 6.2469 15.0543 6.69031V11.7059C15.0544 12.0166 14.968 12.3212 14.8047 12.5855C14.6414 12.8498 14.4077 13.0634 14.1297 13.2023L10.786 14.8741C10.5539 14.9898 10.298 15.0499 10.0387 15.0497Z" fill="#7AB92D"/>
<path d="M25.0855 27.6489C25.0106 27.6489 24.9358 27.6438 24.8615 27.6339L18.174 26.7378C17.7398 26.6728 17.3486 26.4396 17.0849 26.0886C16.8212 25.7377 16.7061 25.297 16.7645 24.8619C16.8229 24.4268 17.0501 24.0321 17.397 23.7631C17.7439 23.4941 18.1828 23.3723 18.6187 23.4241L23.7229 24.1079L25.1106 16.4173C25.1482 16.1999 25.2285 15.992 25.3467 15.8058C25.465 15.6195 25.619 15.4585 25.7998 15.3321C25.9807 15.2056 26.1847 15.1162 26.4002 15.069C26.6158 15.0218 26.8385 15.0177 27.0556 15.057C27.2728 15.0962 27.48 15.1781 27.6653 15.2978C27.8506 15.4176 28.0104 15.5728 28.1355 15.7546C28.2605 15.9364 28.3484 16.1411 28.3939 16.357C28.4394 16.5729 28.4418 16.7957 28.4009 17.0125L26.729 26.268C26.6607 26.6544 26.4586 27.0046 26.1582 27.257C25.8577 27.5095 25.478 27.6482 25.0855 27.6489Z" fill="#7AB92D"/>
<path d="M6.69492 28.4247H83.6012V31.7684C83.6012 38.863 80.7829 45.6669 75.7663 50.6835C70.7497 55.7001 63.9457 58.5184 56.8512 58.5184H33.4449C26.3504 58.5184 19.5464 55.7001 14.5298 50.6835C9.51321 45.6669 6.69492 38.863 6.69492 31.7684V28.4247Z" fill="#84D2F4"/>
<path d="M80.6219 42.318C79.1821 40.2321 77.2861 38.5017 75.0778 37.258C72.8695 36.0143 70.4068 35.2901 67.8768 35.1402C65.3468 34.9903 62.8158 35.4188 60.4761 36.3931C58.1364 37.3674 56.0494 38.8619 54.3735 40.7631C53.9214 40.0565 53.2989 39.4749 52.5633 39.0717C51.8277 38.6686 51.0025 38.4568 50.1637 38.4559C50.0617 38.4559 49.9664 38.4793 49.8661 38.486C49.5146 37.4584 48.8378 36.5733 47.938 35.9649C47.0383 35.3566 45.9647 35.0581 44.8801 35.1148C43.7955 35.1715 42.7589 35.5803 41.9275 36.2792C41.0961 36.978 40.5152 37.9289 40.2729 38.9876C39.8359 38.7065 39.3395 38.5311 38.823 38.4753C38.3064 38.4195 37.784 38.4848 37.2971 38.6661C36.8102 38.8473 36.3723 39.1396 36.018 39.5196C35.6637 39.8996 35.4029 40.357 35.2561 40.8553C35.1094 41.3537 35.0808 41.8795 35.1727 42.3908C35.2645 42.9022 35.4743 43.3851 35.7853 43.8013C36.0963 44.2174 36.5 44.5554 36.9643 44.7884C37.4287 45.0214 37.941 45.1429 38.4605 45.1434C38.5692 45.1434 38.6712 45.1217 38.7782 45.1117C38.3652 46.1729 38.3545 47.3484 38.7481 48.417C33.0704 48.1219 27.6347 46.0244 23.2304 42.4292C18.8261 38.834 15.6827 33.9283 14.2568 28.4247H6.69492V31.7684C6.69492 38.863 9.51321 45.6669 14.5298 50.6835C19.5464 55.7001 26.3504 58.5184 33.4449 58.5184H56.8512C62.2929 58.5155 67.6041 56.8519 72.0752 53.75C76.5463 50.6481 79.9643 46.2556 81.8724 41.1594C81.4595 41.5489 81.0599 41.9535 80.6219 42.318Z" fill="#57B7EB"/>
<path d="M58.523 43.4716C58.523 42.1413 57.9946 40.8656 57.054 39.925C56.1134 38.9844 54.8376 38.456 53.5074 38.456C53.4054 38.456 53.3101 38.4794 53.2098 38.486C52.8584 37.4584 52.1815 36.5733 51.2817 35.9649C50.382 35.3566 49.3085 35.0581 48.2238 35.1148C47.1392 35.1716 46.1026 35.5803 45.2712 36.2792C44.4398 36.978 43.8589 37.9289 43.6166 38.9876C43.1797 38.7065 42.6832 38.5311 42.1667 38.4753C41.6502 38.4195 41.1277 38.4848 40.6408 38.6661C40.154 38.8474 39.716 39.1396 39.3617 39.5196C39.0075 39.8996 38.7466 40.357 38.5999 40.8554C38.4531 41.3538 38.4246 41.8795 38.5164 42.3908C38.6083 42.9022 38.818 43.3851 39.129 43.8013C39.44 44.2175 39.8437 44.5554 40.3081 44.7884C40.7725 45.0214 41.2847 45.143 41.8043 45.1435C41.9129 45.1435 42.0149 45.1217 42.1219 45.1117C41.6817 46.2642 41.6997 47.5415 42.1721 48.6811C41.4376 48.8736 40.7566 49.2307 40.1806 49.7254C39.6047 50.2202 39.1489 50.8395 38.8478 51.5365C38.5468 52.2335 38.4083 52.9899 38.443 53.7484C38.4777 54.5069 38.6845 55.2475 39.0479 55.9142C39.4113 56.5808 39.9217 57.156 40.5404 57.5961C41.1591 58.0362 41.8698 58.3297 42.6188 58.4544C43.3677 58.5791 44.1352 58.5316 44.8631 58.3156C45.591 58.0996 46.2602 57.7207 46.8199 57.2077C47.443 57.7774 48.201 58.179 49.0223 58.3746C49.8436 58.5702 50.7012 58.5534 51.5143 58.3257C52.3273 58.0981 53.0689 57.667 53.6692 57.0733C54.2695 56.4796 54.7086 55.7428 54.9452 54.9323C55.7541 54.695 56.4894 54.2559 57.082 53.6563C57.6745 53.0566 58.1047 52.3161 58.3323 51.5044C58.5598 50.6926 58.5772 49.8364 58.3827 49.0161C58.1883 48.1958 57.7884 47.4385 57.2206 46.8153C58.0553 45.9014 58.5196 44.7093 58.523 43.4716Z" fill="#C4F236"/>
<path d="M56.2476 39.2768C55.8457 39.5445 55.4069 39.7523 54.9452 39.8937C54.7086 40.7042 54.2695 41.4411 53.6692 42.0348C53.0689 42.6285 52.3273 43.0595 51.5143 43.2872C50.7012 43.5149 49.8436 43.5317 49.0223 43.3361C48.201 43.1405 47.443 42.7389 46.8199 42.1692C46.2233 42.7136 45.5032 43.1048 44.7218 43.309C43.9404 43.5133 43.121 43.5245 42.3342 43.3418C41.5475 43.159 40.817 42.7877 40.2057 42.2598C39.5943 41.732 39.1205 41.0634 38.825 40.3117C38.5885 40.7723 38.4636 41.282 38.4605 41.7997C38.4605 42.6865 38.8128 43.537 39.4399 44.1641C40.067 44.7911 40.9175 45.1434 41.8043 45.1434C41.9129 45.1434 42.0149 45.1217 42.1219 45.1117C41.6817 46.2641 41.6997 47.5415 42.1721 48.6811C41.4376 48.8736 40.7566 49.2307 40.1806 49.7254C39.6047 50.2201 39.1489 50.8395 38.8478 51.5365C38.5468 52.2335 38.4083 52.9899 38.443 53.7484C38.4777 54.5069 38.6845 55.2475 39.0479 55.9141C39.4113 56.5808 39.9217 57.156 40.5404 57.5961C41.1591 58.0362 41.8698 58.3297 42.6188 58.4544C43.3677 58.579 44.1352 58.5316 44.8631 58.3156C45.591 58.0996 46.2602 57.7207 46.8199 57.2077C47.443 57.7774 48.201 58.179 49.0223 58.3746C49.8436 58.5702 50.7012 58.5534 51.5143 58.3257C52.3273 58.098 53.0689 57.667 53.6692 57.0733C54.2695 56.4796 54.7086 55.7427 54.9452 54.9323C55.7541 54.695 56.4894 54.2559 57.082 53.6562C57.6745 53.0566 58.1047 52.3161 58.3323 51.5044C58.5598 50.6926 58.5772 49.8364 58.3827 49.0161C58.1883 48.1958 57.7884 47.4385 57.2206 46.8153C57.7085 46.2811 58.0741 45.6469 58.292 44.957C58.5098 44.2671 58.5747 43.538 58.4821 42.8204C58.3895 42.1029 58.1416 41.4142 57.7557 40.8022C57.3698 40.1902 56.8552 39.6697 56.2476 39.2768Z" fill="#A1D51C"/>
<path d="M72.9764 66.8778C82.2099 66.8778 89.6951 59.3926 89.6951 50.1591C89.6951 40.9255 82.2099 33.4403 72.9764 33.4403C63.7429 33.4403 56.2576 40.9255 56.2576 50.1591C56.2576 59.3926 63.7429 66.8778 72.9764 66.8778Z" fill="#F89C8D"/>
<path d="M81.3358 53.5028C77.8998 53.5013 74.5478 52.4413 71.7358 50.4669C68.9238 48.4925 66.7884 45.6997 65.6201 42.4684L69.6326 38.4559L71.9448 49.4736L77.992 41.7997L81.3726 50.1958L87.7926 42.43C85.9314 38.841 82.834 36.0472 79.0727 34.5649C75.3114 33.0826 71.1407 33.0121 67.3314 34.3665C63.5222 35.7209 60.3321 38.4085 58.3508 41.9325C56.3695 45.4565 55.731 49.5787 56.5533 53.537C57.3756 57.4953 59.6032 61.0221 62.8241 63.4654C66.0451 65.9087 70.0417 67.1033 74.0752 66.8284C78.1086 66.5535 81.9062 64.8277 84.7659 61.97C87.6256 59.1122 89.354 55.3158 89.6316 51.2826C87.1084 52.7363 84.2478 53.5019 81.3358 53.5028Z" fill="#F8664F"/>
<path d="M92.0625 21.7372C89.2626 21.7378 86.5033 22.4066 84.0139 23.6881C81.5245 24.9696 79.3769 26.8267 77.7496 29.1051L74.6483 33.4403L79.6639 35.1122C81.7324 33.0436 84.2648 31.4988 87.0505 30.6061C89.8363 29.7133 92.7949 29.4985 95.6804 29.9795L96.3826 30.0966L96.8842 27.6122C97.0267 26.8991 97.0092 26.1634 96.8329 25.4579C96.6565 24.7525 96.3258 24.095 95.8645 23.5329C95.4032 22.9709 94.8228 22.5182 94.1654 22.2077C93.5079 21.8971 92.7896 21.7364 92.0625 21.7372Z" fill="#A1D51C"/>
<path d="M89.6951 26.7528C86.7715 26.7701 83.8583 26.4008 81.0315 25.6544C79.7858 26.6502 78.6817 27.8112 77.7496 29.1051L74.6483 33.4403L79.6639 35.1122C81.7324 33.0436 84.2648 31.4988 87.0505 30.6061C89.8363 29.7133 92.7949 29.4985 95.6804 29.9795L96.3826 30.0966L96.8842 27.6122C96.9817 27.0828 96.9902 26.5409 96.9093 26.0088C94.5375 26.5105 92.1193 26.7598 89.6951 26.7528Z" fill="#7AB92D"/>
<path d="M66.2504 29.3074L65.0935 30.7536C64.4414 31.5692 64.0172 32.5431 63.8642 33.576C63.7111 34.6089 63.8348 35.664 64.2224 36.6336L66.2889 41.7997L71.3045 36.7841L73.6167 47.8017L79.6639 40.1278L83.0444 48.524L89.5781 40.6294C90.1371 39.9531 90.5382 39.1606 90.7522 38.3098C90.9662 37.4589 90.9878 36.571 90.8153 35.7107C90.5149 34.2076 89.6416 32.8802 88.3801 32.0094C87.1186 31.1385 85.5679 30.7925 84.0559 31.0445L81.966 31.3923C80.4867 31.6396 78.9687 31.3138 77.7212 30.4811L74.1367 28.0903C72.908 27.2704 71.4168 26.9406 69.9569 27.1659C68.4971 27.3912 67.1747 28.1552 66.2504 29.3074Z" fill="#A1D51C"/>
<path d="M86.3514 38.4559C78.0405 38.4559 71.3045 33.5908 71.3045 27.5887C71.3045 27.4349 71.3279 27.2845 71.3363 27.1307C70.3753 27.0483 69.4089 27.2035 68.522 27.5825C67.6352 27.9615 66.8551 28.5527 66.2504 29.3041L65.0935 30.7503C64.4414 31.5658 64.0172 32.5397 63.8642 33.5727C63.7111 34.6056 63.8348 35.6607 64.2224 36.6303L66.2889 41.7997L71.3045 36.7841L73.6167 47.8017L79.6639 40.1278L83.0444 48.524L89.5781 40.6294C90.1998 39.8627 90.6189 38.952 90.7969 37.9811C89.3368 38.3011 87.8461 38.4603 86.3514 38.4559Z" fill="#7AB92D"/>
<path d="M15.8902 55.5576L17.5621 58.4532L6.63471 66.3111C6.2918 66.5581 5.90095 66.7306 5.48733 66.8174C5.07371 66.9042 4.6465 66.9033 4.23321 66.815C3.81993 66.7266 3.42973 66.5527 3.08776 66.3043C2.74579 66.056 2.45963 65.7388 2.24771 65.3731C2.03626 65.007 1.90389 64.6006 1.85913 64.1801C1.81438 63.7597 1.85823 63.3345 1.98787 62.932C2.11751 62.5295 2.33006 62.1587 2.61181 61.8434C2.89356 61.5281 3.23825 61.2754 3.62367 61.1015L15.8902 55.5576Z" fill="#A1D51C"/>
<path d="M15.8902 55.5576L3.62366 61.0931C3.38235 61.2048 3.15736 61.3488 2.95491 61.5211C3.08109 61.5323 3.20788 61.5351 3.33443 61.5295L9.48693 60.9142L6.63471 62.964C6.30551 63.2011 5.93177 63.3692 5.53594 63.4582C5.14011 63.5472 4.73037 63.5552 4.33135 63.4818C3.93234 63.4084 3.55228 63.2551 3.21403 63.0311C2.87579 62.807 2.58633 62.5169 2.36307 62.1782C1.9548 62.7649 1.76868 63.4777 1.83802 64.1891C1.90737 64.9005 2.22766 65.564 2.74155 66.0608C3.25544 66.5576 3.92937 66.8552 4.6427 66.9005C5.35603 66.9457 6.06217 66.7356 6.63471 66.3077L17.5621 58.4499L15.8902 55.5576Z" fill="#7AB92D"/>
<path d="M15.8902 58.1356L17.5621 55.2399L6.63471 47.3821C6.29149 47.1353 5.90036 46.9631 5.48653 46.8767C5.0727 46.7903 4.64535 46.7915 4.23203 46.8803C3.81871 46.9692 3.42859 47.1436 3.08682 47.3925C2.74505 47.6413 2.4592 47.959 2.24771 48.325C2.03626 48.6912 1.90389 49.0976 1.85913 49.5181C1.81438 49.9385 1.85823 50.3637 1.98787 50.7662C2.11751 51.1686 2.33006 51.5395 2.61181 51.8547C2.89356 52.17 3.23825 52.4228 3.62367 52.5967L15.8902 58.1356Z" fill="#C4F236"/>
<path d="M11.8142 51.1087C11.2841 51.5922 10.6242 51.9101 9.91571 52.0233C9.20722 52.1365 8.4811 52.04 7.82677 51.7457L1.94846 49.0924C1.7685 49.7808 1.83757 50.5107 2.14349 51.1531C2.4494 51.7955 2.97247 52.3092 3.62033 52.6033L15.8902 58.1356L17.5621 55.2399L11.8142 51.1087Z" fill="#A1D51C"/>
<path d="M16.7261 55.1747V58.5185L3.33442 59.856C2.91388 59.898 2.48921 59.8515 2.08775 59.7194C1.6863 59.5873 1.31696 59.3726 1.00353 59.0891C0.690097 58.8056 0.439527 58.4596 0.267958 58.0733C0.0963885 57.6871 0.00762516 57.2692 0.00738525 56.8466C0.00762516 56.424 0.0963885 56.0061 0.267958 55.6198C0.439527 55.2336 0.690097 54.8876 1.00353 54.6041C1.31696 54.3206 1.6863 54.1059 2.08775 53.9738C2.48921 53.8417 2.91388 53.7952 3.33442 53.8372L16.7261 55.1747Z" fill="#C4F236"/>
<path d="M16.7262 55.1747L10.7074 54.5728C9.88965 55.4259 8.7963 55.9619 7.62112 56.0859L3.33443 56.5122C2.78794 56.5658 2.23714 56.4697 1.74114 56.2341C1.24514 55.9984 0.822652 55.6322 0.518996 55.1747C0.196507 55.6501 0.0168066 56.2078 0.00112231 56.782C-0.014562 57.3562 0.134425 57.9229 0.430484 58.4152C0.726543 58.9075 1.15731 59.3047 1.67188 59.56C2.18646 59.8153 2.76336 59.918 3.33443 59.8559L16.7262 58.5184V55.1747Z" fill="#A1D51C"/>
<path d="M11.7105 56.8466C11.7104 58.1265 11.9749 59.3926 12.4872 60.5655C12.9995 61.7384 13.7487 62.7927 14.6878 63.6624C15.6268 64.532 16.7355 65.1983 17.9442 65.6193C19.1529 66.0402 20.4355 66.2069 21.7117 66.1087L48.5118 64.0473C50.3258 63.9075 52.0202 63.0882 53.2563 61.7532C54.4924 60.4183 55.1792 58.6659 55.1793 56.8466C55.1792 55.0272 54.4924 53.2749 53.2563 51.9399C52.0202 50.6049 50.3258 49.7856 48.5118 49.6458L21.7117 47.5844C20.4355 47.4862 19.1529 47.6529 17.9442 48.0739C16.7355 48.4949 15.6268 49.1611 14.6878 50.0308C13.7487 50.9004 12.9995 51.9548 12.4872 53.1277C11.9749 54.3005 11.7104 55.5667 11.7105 56.8466Z" fill="#F89C8D"/>
<path d="M52.0947 59.8008L25.333 57.3063C23.1054 57.0985 21.0277 56.0939 19.4813 54.4772C17.9349 52.8605 17.0237 50.7401 16.9151 48.5056C14.9756 49.4559 13.4279 51.0525 12.5382 53.0205C11.6485 54.9886 11.4724 57.2052 12.0402 59.289C12.608 61.3728 13.8842 63.1937 15.6494 64.4383C17.4145 65.683 19.5582 66.2737 21.7117 66.1087L48.5118 64.0473C49.8487 63.9438 51.1303 63.4702 52.2131 62.6794C53.2959 61.8886 54.1372 60.812 54.6426 59.57C53.8139 59.7987 52.9509 59.8768 52.0947 59.8008Z" fill="#F8664F"/>
<path d="M21.7418 47.5844L25.0855 47.8352V53.5028C25.0855 53.9462 24.9094 54.3715 24.5958 54.685C24.2823 54.9986 23.857 55.1747 23.4136 55.1747C22.9702 55.1747 22.545 54.9986 22.2314 54.685C21.9179 54.3715 21.7418 53.9462 21.7418 53.5028V47.5844Z" fill="#CC5144"/>
<path d="M33.4449 58.5184V65.206L30.1011 65.4567V58.5184C30.1011 58.075 30.2773 57.6498 30.5908 57.3363C30.9044 57.0227 31.3296 56.8466 31.773 56.8466C32.2164 56.8466 32.6417 57.0227 32.9552 57.3363C33.2687 57.6498 33.4449 58.075 33.4449 58.5184Z" fill="#CC5144"/>
<path d="M35.1168 48.6209L38.4605 48.8717V55.1747C38.4605 55.6181 38.2844 56.0433 37.9708 56.3569C37.6573 56.6704 37.232 56.8466 36.7886 56.8466C36.3452 56.8466 35.92 56.6704 35.6064 56.3569C35.2929 56.0433 35.1168 55.6181 35.1168 55.1747V48.6209Z" fill="#CC5144"/>
<path d="M41.8043 49.1225L45.148 49.39V53.5028C45.148 53.9462 44.9719 54.3715 44.6583 54.685C44.3448 54.9986 43.9195 55.1747 43.4761 55.1747C43.0327 55.1747 42.6075 54.9986 42.2939 54.685C41.9804 54.3715 41.8043 53.9462 41.8043 53.5028V49.1225Z" fill="#CC5144"/>
<path d="M50.1636 58.5184V63.718C49.628 63.8981 49.072 64.0105 48.5085 64.0524L46.8199 64.1861V58.5184C46.8199 58.075 46.996 57.6498 47.3096 57.3363C47.6231 57.0227 48.0484 56.8466 48.4918 56.8466C48.9352 56.8466 49.3604 57.0227 49.674 57.3363C49.9875 57.6498 50.1636 58.075 50.1636 58.5184Z" fill="#CC5144"/>
<path d="M38.4605 48.8717V55.1747C38.4605 55.6181 38.2844 56.0433 37.9708 56.3569C37.6573 56.6704 37.232 56.8466 36.7886 56.8466C36.3452 56.8466 35.92 56.6704 35.6064 56.3569C35.2929 56.0433 35.1168 55.6181 35.1168 55.1747V48.6209L38.4605 48.8717Z" fill="#CC5144"/>
<path d="M25.0855 47.8352V53.5028C25.0855 53.9462 24.9094 54.3715 24.5958 54.685C24.2823 54.9986 23.857 55.1747 23.4136 55.1747C22.9702 55.1747 22.545 54.9986 22.2314 54.685C21.9179 54.3715 21.7418 53.9462 21.7418 53.5028V47.5844L25.0855 47.8352Z" fill="#CC5144"/>
<path d="M50.1636 58.5184V63.718C49.628 63.8981 49.072 64.0105 48.5085 64.0524L46.8199 64.1861V58.5184C46.8199 58.075 46.996 57.6498 47.3096 57.3363C47.6231 57.0227 48.0484 56.8466 48.4918 56.8466C48.9352 56.8466 49.3604 57.0227 49.674 57.3363C49.9875 57.6498 50.1636 58.075 50.1636 58.5184Z" fill="#CC5144"/>
<path d="M33.4449 58.5184V65.206L30.1011 65.4567V58.5184C30.1011 58.075 30.2773 57.6498 30.5908 57.3363C30.9044 57.0227 31.3296 56.8466 31.773 56.8466C32.2164 56.8466 32.6417 57.0227 32.9552 57.3363C33.2687 57.6498 33.4449 58.075 33.4449 58.5184Z" fill="#CC5144"/>
<path d="M45.148 49.39V53.5028C45.148 53.9462 44.9719 54.3715 44.6583 54.685C44.3448 54.9986 43.9195 55.1747 43.4761 55.1747C43.0327 55.1747 42.6075 54.9986 42.2939 54.685C41.9804 54.3715 41.8043 53.9462 41.8043 53.5028V49.1225L45.148 49.39Z" fill="#CC5144"/>
</svg>
