<svg id="Capa_1" enable-background="new 0 0 512 512" height="512" viewBox="0 0 512 512" width="512" xmlns="http://www.w3.org/2000/svg"><g><path d="m401.536 512h-247.244l-82.414-82.414v-347.172l82.414-82.414h247.244l82.414 82.414v347.172z" fill="#dc8758"/><g><path d="m71.874 284.33h-15.494c-15.621 0-28.33-12.709-28.33-28.33 0-7.564 2.948-14.678 8.3-20.03s12.465-8.3 20.03-8.3h15.494c4.267 0 7.726 3.459 7.726 7.726s-3.459 7.726-7.726 7.726h-15.494c-3.437 0-6.67 1.34-9.103 3.774-2.434 2.434-3.774 5.667-3.774 9.104 0 7.101 5.777 12.877 12.877 12.877h15.494c4.267 0 7.726 3.459 7.726 7.726 0 4.268-3.459 7.727-7.726 7.727z" fill="#7a6d79"/></g><g><path d="m71.874 190.707h-15.494c-15.621 0-28.33-12.709-28.33-28.33 0-7.564 2.948-14.678 8.3-20.03 5.351-5.352 12.465-8.3 20.03-8.3h15.494c4.267 0 7.726 3.459 7.726 7.726s-3.459 7.726-7.726 7.726h-15.494c-3.437 0-6.67 1.34-9.103 3.773-2.434 2.435-3.775 5.668-3.775 9.104 0 7.101 5.777 12.877 12.877 12.877h15.494c4.267 0 7.726 3.459 7.726 7.726s-3.458 7.728-7.725 7.728z" fill="#7a6d79"/></g><g><path d="m71.874 377.953h-15.494c-15.621 0-28.33-12.709-28.33-28.33 0-7.564 2.948-14.678 8.301-20.03 5.351-5.352 12.465-8.3 20.029-8.3h15.494c4.267 0 7.726 3.459 7.726 7.726s-3.459 7.726-7.726 7.726h-15.494c-3.437 0-6.67 1.34-9.103 3.774-2.435 2.434-3.775 5.667-3.775 9.104 0 7.101 5.777 12.877 12.877 12.877h15.494c4.267 0 7.726 3.459 7.726 7.726.001 4.267-3.458 7.727-7.725 7.727z" fill="#7a6d79"/></g><path d="m113.38 0v512h-34.5c-3.87 0-7-3.13-7-7v-498c0-3.87 3.13-7 7-7z" fill="#d77f4a"/><path d="m154.292 0h-75.414c-3.866 0-7 3.134-7 7v75.414h34.207c3.866 0 7-3.134 7-7v-13.603c0-11.379 9.225-20.604 20.604-20.604h13.604c3.866 0 7-3.134 7-7v-34.207z" fill="#ffe177"/><path d="m113.38 0v58.32c-.2 1.13-.3 2.3-.3 3.49v13.6c0 3.87-3.13 7-7 7h-34.2v-75.41c0-3.87 3.13-7 7-7z" fill="#ffd15b"/><path d="m401.536 0h75.414c3.866 0 7 3.134 7 7v75.414h-34.207c-3.866 0-7-3.134-7-7v-13.603c0-11.379-9.225-20.604-20.604-20.604h-13.604c-3.866 0-7-3.134-7-7v-34.207z" fill="#ffe177"/><path d="m154.292 512h-75.414c-3.866 0-7-3.134-7-7v-75.414h34.207c3.866 0 7 3.134 7 7v13.604c0 11.379 9.225 20.604 20.604 20.604h13.604c3.866 0 7 3.134 7 7v34.206z" fill="#ffe177"/><path d="m113.38 453.68v58.32h-34.5c-3.87 0-7-3.13-7-7v-75.41h34.2c3.87 0 7 3.13 7 7v13.6c0 1.19.1 2.36.3 3.49z" fill="#ffd15b"/><path d="m401.536 512h75.414c3.866 0 7-3.134 7-7v-75.414h-34.207c-3.866 0-7 3.134-7 7v13.604c0 11.379-9.225 20.604-20.604 20.604h-13.604c-3.866 0-7 3.134-7 7v34.206z" fill="#ffe177"/><path d="m347.05 391.123h-138.273c-3.866 0-7-3.134-7-7v-44.632c0-3.866 3.134-7 7-7h138.273c3.866 0 7 3.134 7 7v44.632c0 3.866-3.134 7-7 7z" fill="#eaf6ff"/><g><path d="m330.086 451.155h-99.751c-4.267 0-7.726-3.459-7.726-7.726s3.459-7.726 7.726-7.726h99.751c4.267 0 7.726 3.459 7.726 7.726s-3.459 7.726-7.726 7.726z" fill="#eaf6ff"/></g><path d="m298.518 128.718v-30.336c0-5.687-2.308-10.838-6.037-14.567s-8.88-6.037-14.567-6.037c-11.383 0-20.604 9.22-20.604 20.604v30.336z" fill="#cbc4cc"/><path d="m159.443 235.396c0-65.427 53.044-118.471 118.471-118.471 65.437 0 118.471 53.044 118.471 118.471l-8.885 10h-219.5z" fill="#eaf6ff"/><path d="m381.837 276.604h-207.847c-16.569 0-30-13.431-30-30v-4.207c0-3.866 3.134-7 7-7h253.847c3.866 0 7 3.134 7 7v4.207c0 16.568-13.431 30-30 30z" fill="#cbc4cc"/></g></svg>