<svg width="90" height="83" viewBox="0 0 90 83" fill="none" xmlns="http://www.w3.org/2000/svg">
<path d="M63.4568 59.0445V79.71C63.4568 81.3418 64.6362 82.6623 66.0936 82.6623C67.551 82.6623 68.7303 81.3418 68.7303 79.71V70.8534L63.4568 59.0445Z" fill="#591F1F"/>
<path d="M21.2694 79.71C21.2694 81.3418 22.4487 82.6623 23.9061 82.6623C25.3635 82.6623 26.5428 81.3418 26.5428 79.71V59.0445L21.2694 70.8534V79.71Z" fill="#804040"/>
<path d="M82.0897 59.0445H66.0936V47.2356H84.7264L82.0897 59.0445Z" fill="#591F1F"/>
<path d="M82.0897 82.6622C80.6323 82.6622 79.453 81.3418 79.453 79.71V56.0922L84.747 14.395C84.9272 12.7776 86.2327 11.6418 87.6901 11.8321C89.1347 12.0338 90.1595 13.5099 89.9791 15.1274L84.7057 56.4585L84.7264 79.71C84.7264 81.3418 83.5471 82.6622 82.0897 82.6622Z" fill="#804040"/>
<path d="M7.91 59.0445H23.9061V47.2356H5.27328L7.91 59.0445Z" fill="#591F1F"/>
<path d="M7.91 82.6622C9.3674 82.6622 10.5467 81.3418 10.5467 79.71V56.0922L5.25271 14.395C5.07254 12.7776 3.76701 11.6418 2.30961 11.8321C0.865037 12.0338 -0.159768 13.5099 0.0205839 15.1274L5.29402 56.4585L5.27328 79.71C5.27328 81.3418 6.4526 82.6622 7.91 82.6622Z" fill="#804040"/>
<path d="M55.5467 5.90445C54.0893 5.90445 52.91 7.22488 52.91 8.85667V14.7611C52.91 16.39 51.7281 17.7133 50.2733 17.7133H47.6366V2.95222C47.6366 1.32043 46.4573 0 44.9998 0C43.5424 0 42.3631 1.32043 42.3631 2.95222V17.7133H39.7264C38.2716 17.7133 37.0897 16.39 37.0897 14.7611V8.85667C37.0897 7.22488 35.9104 5.90445 34.453 5.90445C32.9956 5.90445 31.8163 7.22488 31.8163 8.85667V14.7611C31.8163 19.6449 35.3646 23.6178 39.7264 23.6178H42.3631V32.4745C42.3631 34.1063 43.5424 35.4267 44.9998 35.4267C46.4573 35.4267 47.6366 34.1063 47.6366 32.4745V23.6178H50.2733C54.6351 23.6178 58.1834 19.6449 58.1834 14.7611V8.85667C58.1834 7.22488 57.0041 5.90445 55.5467 5.90445Z" fill="#EDF5FF"/>
<path d="M47.6366 32.4745V23.6178H50.2733C54.6351 23.6178 58.1834 19.6449 58.1834 14.7611V8.85667C58.1834 7.22488 57.0041 5.90445 55.5467 5.90445C54.0893 5.90445 52.91 7.22488 52.91 8.85667V14.7611C52.91 16.39 51.7281 17.7133 50.2733 17.7133H47.6366V2.95222C47.6366 1.32043 46.4573 0 44.9998 0V35.4267C46.4573 35.4267 47.6366 34.1063 47.6366 32.4745Z" fill="#D5E8FE"/>
<path d="M22.1601 30.2977C21.6225 30.8383 21.2694 31.602 21.2694 32.4744V70.8533L44.9998 50.1878L39.0802 34.5359L22.1601 30.2977Z" fill="#E64D2E"/>
<path d="M66.0936 29.5222H44.9999H23.9061C23.2292 29.5222 22.6268 29.8283 22.1601 30.2977L44.9999 50.1878L68.7303 70.8534V32.4745C68.7303 30.8474 67.4689 29.5222 66.0936 29.5222Z" fill="#FF7B4A"/>
<path d="M68.7303 32.4745C68.7303 30.8474 67.4689 29.5222 66.0936 29.5222H44.9998V50.1878L68.7303 70.8534V32.4745Z" fill="#E64D2E"/>
</svg>
