<svg width="95" height="100" viewBox="0 0 95 100" fill="none" xmlns="http://www.w3.org/2000/svg">
<path d="M76.3965 45.1347C75.5631 45.1347 74.8875 44.4591 74.8875 43.6257V29.4831C74.8875 28.6497 75.5631 27.9742 76.3965 27.9742C77.2299 27.9742 77.9055 28.6497 77.9055 29.4831V43.6257C77.9055 44.4591 77.2299 45.1347 76.3965 45.1347Z" fill="#75CFF9"/>
<path d="M76.3965 31.1987C72.3252 31.1987 69.0247 27.8983 69.0247 23.8269V13.9177C69.0247 13.5761 69.3016 13.2991 69.6432 13.2991H83.1499C83.4915 13.2991 83.7684 13.5761 83.7684 13.9177V23.8269C83.7684 27.8982 80.468 31.1987 76.3965 31.1987Z" fill="#75CFF9"/>
<path d="M83.1498 13.2991H78.8295C79.1711 13.2991 79.448 13.5761 79.448 13.9177V23.8269C79.448 27.1464 77.2539 29.953 74.2367 30.8765C74.9199 31.0857 75.6449 31.1987 76.3967 31.1987C80.4679 31.1987 83.7685 27.8983 83.7685 23.8269V13.9177C83.7683 13.5761 83.4914 13.2991 83.1498 13.2991Z" fill="#5FA7EE"/>
<path d="M69.0247 21.9749V23.8269C69.0247 27.8982 72.325 31.1987 76.3965 31.1987C80.4678 31.1987 83.7684 27.8984 83.7684 23.8269V21.9749H69.0247Z" fill="#744C9E"/>
<path d="M79.448 21.9749V23.8269C79.448 27.1464 77.2537 29.953 74.2367 30.8765C74.9568 31.0968 75.6951 31.1985 76.3945 31.1987H76.3967C79.2017 31.1987 81.6406 29.6317 82.8865 27.3257C83.449 26.2847 83.7685 25.0933 83.7685 23.8269V21.9749H79.448Z" fill="#644187"/>
<path d="M68.9248 48.1792V52.1194C68.9248 53.121 69.4533 53.997 70.2449 54.4905L64.5867 70.0979L71.7322 72.6884L78.1758 54.9145H80.369C82.8891 54.9145 84.9319 52.8716 84.9319 50.3517V48.1792H68.9248Z" fill="#FFCDBE"/>
<path d="M93.6301 41.9101H59.1629C58.6734 41.9101 58.2767 42.3069 58.2767 42.7962V44.6259C58.2767 46.5884 59.8676 48.1792 61.8301 48.1792H90.9631C92.9256 48.1792 94.5164 46.5884 94.5164 44.6259V42.7962C94.5162 42.3067 94.1195 41.9101 93.6301 41.9101Z" fill="#AA3584"/>
<path d="M93.6301 41.9101H88.8027C89.2922 41.9101 89.6889 42.3069 89.6889 42.7962V44.6259C89.6889 46.5882 88.0981 48.1792 86.1356 48.1792H90.9629C92.9254 48.1792 94.5162 46.5884 94.5162 44.6259V42.7962C94.5162 42.3067 94.1195 41.9101 93.6301 41.9101Z" fill="#902D72"/>
<path d="M66.0129 59.2876L60.5707 74.2989L56.8744 63.4079C55.26 58.6511 51.6406 54.8417 46.9727 52.986L38.5891 49.6534V38.1028H27.0109V49.6534C14.8785 49.6534 5.88574 67.1841 1.32441 74.5222C0.495313 75.856 0 77.3683 0 78.9386C0 83.3708 3.59297 86.9638 8.0252 86.9638H14.3959V94.0552H51.2039V81.9993L53.601 88.3577C54.9393 91.9079 58.591 94.0261 62.3371 93.4249C64.9604 93.4249 67.3027 91.7825 68.1967 89.3163L77.5648 63.4755C77.7543 62.9532 77.4842 62.3761 76.9619 62.1868L67.3012 58.6845C66.7793 58.4952 66.2023 58.7652 66.0129 59.2876Z" fill="#DDEBFD"/>
<path d="M73.8457 61.0569L64.0705 88.0206C63.1492 90.5622 60.7352 92.2548 58.0316 92.2548C57.658 92.3148 57.2855 92.3478 56.916 92.3564C58.4945 93.3191 60.4029 93.7353 62.3375 93.4249C64.9607 93.4249 67.3031 91.7825 68.1971 89.3163L77.5652 63.4755C77.7547 62.9532 77.4846 62.3761 76.9623 62.1868L73.8457 61.0569Z" fill="#BED9FD"/>
<path d="M25.016 51.3329C30.2061 56.5947 35.3955 56.5947 40.5844 51.3329V50.4464L38.5893 49.6533V38.1027H27.0111V49.6533C26.3361 49.6533 25.6715 49.7105 25.016 49.8142V51.3329Z" fill="#FFCDBE"/>
<path d="M27.0111 38.1027V45.8478C29.2982 47.5771 32.2188 48.9693 34.1787 48.9693C35.4033 48.9693 37.0031 48.4245 38.5893 47.595V38.1027H27.0111Z" fill="#EBAE9D"/>
<path d="M51.2049 78.7671V98.9692C51.2049 99.5386 50.7433 100 50.174 100H15.4275C14.8582 100 14.3967 99.5386 14.3967 98.9692V78.7671L17.4111 76.4661C20.4545 74.1445 21.9533 70.3239 21.2976 66.5527L18.8275 52.3052C21.0564 50.864 23.442 49.9052 25.9697 49.6989L31.8598 64.914C32.192 65.772 33.4062 65.7708 33.7369 64.9122L39.475 50.0062L46.675 52.8681L44.3017 66.5527C43.648 70.3237 45.1471 74.1445 48.1883 76.4661L51.2049 78.7671Z" fill="#26447E"/>
<path d="M14.3967 79.9743C13.7301 79.9743 13.1895 79.4337 13.1895 78.7671V69.5155C13.1895 68.8489 13.7301 68.3083 14.3967 68.3083C15.0633 68.3083 15.6039 68.8489 15.6039 69.5155V78.7671C15.6039 79.4339 15.0633 79.9743 14.3967 79.9743Z" fill="#BED9FD"/>
<path d="M38.2506 76.364H36.6289V74.7626C36.6289 73.8784 35.9121 73.1616 35.0279 73.1616H32.3594C31.4133 73.1616 30.6463 73.9286 30.6463 74.8747V86.5458H38.2508C40.7918 86.5458 42.8517 84.4859 42.8517 81.9448V80.965C42.8515 78.4239 40.7916 76.364 38.2506 76.364Z" fill="#FFCDBE"/>
<path d="M9.31014 100H30.2338C30.4615 100 30.6461 99.8155 30.6461 99.5878V75.3433H13.1148C10.7857 75.3433 8.89764 77.2313 8.89764 79.5605V99.5878C8.89764 99.8155 9.08241 100 9.31014 100Z" fill="#75CFF9"/>
<path d="M23.2086 89.9269C22.542 89.9269 22.0013 90.4675 22.0013 91.1341V100H24.4158V91.1341C24.4158 90.4675 23.8754 89.9269 23.2086 89.9269Z" fill="#5FA7EE"/>
<path d="M16.3352 94.3599C15.6686 94.3599 15.1279 94.9005 15.1279 95.5671V100H17.5424V95.5671C17.5424 94.9005 17.002 94.3599 16.3352 94.3599Z" fill="#5FA7EE"/>
<path d="M52.6014 15.6202C52.1486 12.32 48.2943 10.3927 46.4443 10.0458C43.8899 6.04737 35.1477 0.3421 27.0836 0.000498514C26.6582 -0.0174702 26.3887 0.454014 26.6115 0.81671C27.9211 2.94698 28.3531 3.90675 28.6088 4.5503C28.7789 4.97862 28.3645 5.4046 27.9303 5.24991C24.0031 3.85108 17.5029 2.6503 11.7299 4.68351C11.3729 4.80929 11.2553 5.25753 11.5039 5.54308C13.777 8.15284 16.3807 10.5083 16.3807 10.5083C16.3807 10.5083 9.5586 20.2212 17.6525 30.3964L48.1785 31.2558C48.1787 31.256 53.2119 20.0714 52.6014 15.6202Z" fill="#26447E"/>
<path d="M52.6014 15.6202C52.1486 12.32 48.2943 10.3927 46.4443 10.0458C43.8899 6.04738 35.1477 0.342105 27.0836 0.000503547C26.7063 -0.0155121 26.4535 0.353433 26.5563 0.690152C33.1518 2.38351 39.3582 6.78253 41.443 10.0458C43.293 10.3927 47.1473 12.32 47.6 15.6202C48.1707 19.7808 43.8109 29.8234 43.2393 31.1169L48.1787 31.256C48.1787 31.256 53.2119 20.0714 52.6014 15.6202Z" fill="#20396B"/>
<path d="M47.5082 33.9907H39.9887V26.5988H47.5082C49.5494 26.5988 51.2043 28.2534 51.2043 30.2948C51.2043 32.3363 49.5494 33.9907 47.5082 33.9907Z" fill="#EBAE9D"/>
<path d="M18.0922 33.9907H25.6117V26.5988H18.0922C16.051 26.5988 14.3961 28.2534 14.3961 30.2948C14.3961 32.3363 16.051 33.9907 18.0922 33.9907Z" fill="#EBAE9D"/>
<path d="M43.1053 37.9558C41.6566 40.7786 35.9705 44.4206 32.7994 44.4206C29.6305 44.4206 23.9422 40.7788 22.4955 37.9558C21.401 35.8249 21.2621 29.2073 21.4553 23.7122C27.1433 22.8028 32.5377 20.0945 36.6766 16.0905H41.266C42.6019 16.0905 43.7187 17.1087 43.8353 18.4386C44.3125 23.8069 44.5963 35.0525 43.1053 37.9558Z" fill="#FFCDBE"/>
<path d="M52.4121 68.3083C51.7455 68.3083 51.2048 68.8489 51.2048 69.5155V82.0011C51.2048 82.0011 53.6134 88.3876 53.6193 88.4028V69.5153C53.6193 68.8489 53.0789 68.3083 52.4121 68.3083Z" fill="#BED9FD"/>
<path d="M57.8597 78.1583C57.9956 78.2077 58.1345 78.231 58.271 78.231C58.7648 78.231 59.2281 77.9259 59.406 77.4349L60.5572 74.2595L59.3154 70.6007L57.1361 76.612C56.9091 77.2388 57.2329 77.9312 57.8597 78.1583Z" fill="#BED9FD"/>
</svg>
